<svg width="1200" height="630" viewBox="0 0 1200 630" fill="none" xmlns="http://www.w3.org/2000/svg">
  <rect width="1200" height="630" fill="#0a0a0b"/>
  <path d="M0 128H1200M0 256H1200M0 384H1200M0 512H1200M160 0V630M320 0V630M480 0V630M640 0V630M800 0V630M960 0V630" stroke="#1e1e1e"/>
  <rect x="92" y="92" width="1016" height="446" rx="24" fill="#141416" stroke="#262626"/>
  <circle cx="132" cy="132" r="9" fill="#ef4444"/>
  <circle cx="162" cy="132" r="9" fill="#f59e0b"/>
  <circle cx="192" cy="132" r="9" fill="#22c55e"/>
  <text x="92" y="620" fill="#262626" font-family="monospace" font-size="18">gopal-kaul.is-a.dev</text>
  <text x="136" y="236" fill="#ef4444" font-family="monospace" font-size="34">$ whoami</text>
  <text x="136" y="330" fill="#e8e6e3" font-family="Arial, sans-serif" font-size="92" font-weight="800">Gopal Kaul</text>
  <text x="136" y="394" fill="#b0ada8" font-family="monospace" font-size="30">Software Developer · React · Spring Boot · Linux</text>
  <rect x="136" y="444" width="348" height="50" rx="8" fill="#ef4444"/>
  <text x="164" y="478" fill="#ffffff" font-family="monospace" font-size="24">:Experience</text>
  <text x="884" y="492" fill="#3b82f6" font-family="monospace" font-size="24">NORMAL</text>
</svg>
